<svg width="82" height="82" viewBox="0 0 82 82" fill="none" xmlns="http://www.w3.org/2000/svg">
<path d="M73.4409 37.5362V36.5362C72.8887 36.5362 72.4409 36.9839 72.4409 37.5362H73.4409ZM81 37.5362H82C82 36.9839 81.5523 36.5362 81 36.5362V37.5362ZM81 45.0951V46.0951C81.5523 46.0951 82 45.6474 82 45.0951H81ZM73.4409 45.0951H72.4409C72.4409 45.6474 72.8887 46.0951 73.4409 46.0951V45.0951ZM1 38.7961V37.7961C0.447715 37.7961 0 38.2438 0 38.7961H1ZM8.55906 38.7961H9.55906C9.55906 38.2438 9.11134 37.7961 8.55906 37.7961V38.7961ZM8.55906 46.355V47.355C9.11134 47.355 9.55906 46.9073 9.55906 46.355H8.55906ZM1 46.355H0C0 46.9073 0.447715 47.355 1 47.355L1 46.355ZM37.5354 73.4411V72.4411C36.9831 72.4411 36.5354 72.8888 36.5354 73.4411H37.5354ZM45.0945 73.4411H46.0945C46.0945 72.8888 45.6468 72.4411 45.0945 72.4411V73.4411ZM45.0945 81V82C45.6468 82 46.0945 81.5523 46.0945 81H45.0945ZM37.5354 81H36.5354C36.5354 81.5523 36.9831 82 37.5354 82V81ZM37.5354 1.00146V0.00146484C36.9831 0.00146484 36.5354 0.44918 36.5354 1.00146L37.5354 1.00146ZM45.0945 1.00146H46.0945C46.0945 0.44918 45.6468 0.00146484 45.0945 0.00146484V1.00146ZM45.0945 8.56038V9.56038C45.6468 9.56038 46.0945 9.11267 46.0945 8.56038H45.0945ZM37.5354 8.56038H36.5354C36.5354 9.11267 36.9831 9.56038 37.5354 9.56038V8.56038ZM80 37.5362V45.0951H82V37.5362H80ZM74.4409 45.0951V37.5362H72.4409V45.0951H74.4409ZM7.55906 38.7961V46.355H9.55906V38.7961H7.55906ZM2 46.355V38.7961H0V46.355H2ZM37.5354 74.4411H45.0945V72.4411H37.5354V74.4411ZM45.0945 80H37.5354V82H45.0945V80ZM37.5354 2.00146H45.0945V0.00146484H37.5354V2.00146ZM45.0945 7.56038H37.5354V9.56038H45.0945V7.56038ZM81 44.0951H77.6573V46.0951H81V44.0951ZM77.6573 44.0951H73.4409V46.0951H77.6573V44.0951ZM73.4409 38.5362H77.6573V36.5362H73.4409V38.5362ZM77.6573 38.5362H81V36.5362H77.6573V38.5362ZM76.6625 44.9929C74.9474 61.6808 61.6805 74.9475 44.9923 76.6626L45.1967 78.6521C62.8278 76.8401 76.84 62.8281 78.652 45.1974L76.6625 44.9929ZM44.0945 73.4411V77.6573H46.0945V73.4411H44.0945ZM44.0945 77.6573V81H46.0945V77.6573H44.0945ZM38.5354 81V77.6573H36.5354V81H38.5354ZM38.5354 77.6573V73.4411H36.5354V77.6573H38.5354ZM1 39.7961H4.77953V37.7961H1V39.7961ZM37.6377 76.6626C21.3602 74.9897 8.33724 62.3267 6.11485 46.2183L4.13362 46.4916C6.48156 63.51 20.2356 76.8847 37.4332 78.6521L37.6377 76.6626ZM8.55906 45.355H5.12423V47.355H8.55906V45.355ZM5.12423 45.355H1V47.355H5.12423V45.355ZM4.77953 39.7961H4.86505V37.7961H4.77953V39.7961ZM4.86505 39.7961H8.55906V37.7961H4.86505V39.7961ZM5.86274 38.864C7.03845 21.6036 20.5427 7.72569 37.6377 5.9688L37.4332 3.97928C19.373 5.83536 5.10947 20.4929 3.86737 38.7281L5.86274 38.864ZM38.5354 8.56038V4.97404H36.5354V8.56038H38.5354ZM38.5354 4.97404V1.00146H36.5354V4.97404H38.5354ZM44.9923 5.9688C61.6805 7.68389 74.9474 20.9505 76.6625 37.6385L78.652 37.434C76.84 19.8032 62.8278 5.79126 45.1967 3.97928L44.9923 5.9688ZM44.0945 1.00146V4.97404H46.0945V1.00146H44.0945ZM44.0945 4.97404V8.56038H46.0945V4.97404H44.0945Z" fill="url(#paint0_linear_117_5449)"/>
<line x1="37.2756" y1="57.9531" x2="45.3544" y2="57.9531" stroke="url(#paint1_linear_117_5449)" stroke-width="2" stroke-linecap="round"/>
<path d="M41.315 23.6782L28.7166 44.1953L37.1155 53.9139H45.5145L53.9134 44.1953L41.315 23.6782ZM41.315 23.6782V40.1704" stroke="url(#paint2_linear_117_5449)" stroke-width="2" stroke-linejoin="round"/>
<path d="M41.315 47.355C43.2588 47.355 44.8347 45.7792 44.8347 43.8353C44.8347 41.8915 43.2588 40.3157 41.315 40.3157C39.3711 40.3157 37.7953 41.8915 37.7953 43.8353C37.7953 45.7792 39.3711 47.355 41.315 47.355Z" stroke="url(#paint3_linear_117_5449)" stroke-width="2"/>
<defs>
<linearGradient id="paint0_linear_117_5449" x1="0.999999" y1="12.2513" x2="80.9988" y2="81.0014" gradientUnits="userSpaceOnUse">
<stop stop-color="#1E74EC"/>
<stop offset="1" stop-color="#002984"/>
</linearGradient>
<linearGradient id="paint1_linear_117_5449" x1="36.2756" y1="59.0938" x2="36.5061" y2="61.0901" gradientUnits="userSpaceOnUse">
<stop stop-color="#1E74EC"/>
<stop offset="1" stop-color="#002984"/>
</linearGradient>
<linearGradient id="paint2_linear_117_5449" x1="28.7166" y1="27.9301" x2="57.6714" y2="48.6664" gradientUnits="userSpaceOnUse">
<stop stop-color="#1E74EC"/>
<stop offset="1" stop-color="#002984"/>
</linearGradient>
<linearGradient id="paint3_linear_117_5449" x1="38.7953" y1="42.0243" x2="43.8346" y2="46.355" gradientUnits="userSpaceOnUse">
<stop stop-color="#1E74EC"/>
<stop offset="1" stop-color="#002984"/>
</linearGradient>
</defs>
</svg>
